<svg version="1.1" xmlns="http://www.w3.org/2000/svg" viewBox="0 0 1303.7894736842102 1135.9906459217043" width="1303.7894736842102" height="1135.9906459217043">
  <!-- svg-source:excalidraw -->
  
  <defs>
    <style>
      @font-face {
        font-family: "Virgil";
        src: url("https://excalidraw.com/FG_Virgil.woff2");
      }
      @font-face {
        font-family: "Cascadia";
        src: url("https://excalidraw.com/Cascadia.woff2");
      }
    </style>
  </defs>
  <rect x="0" y="0" width="1303.7894736842102" height="1135.9906459217043" fill="#ffffff"/><g transform="translate(474.7894736842102 14) rotate(0 105 37)"><path d="M0 0 C54.75232088472694 0, 109.50464176945388 0, 210 0 M0 0 C50.3672290602699 0, 100.7344581205398 0, 210 0 M210 0 C210 19.114450362138452, 210 38.228900724276905, 210 74 M210 0 C210 21.32804611939937, 210 42.65609223879874, 210 74 M210 74 C161.97418278548867 74, 113.94836557097733 74, 0 74 M210 74 C138.25669966544956 74, 66.51339933089912 74, 0 74 M0 74 C0 48.22677379567176, 0 22.453547591343522, 0 0 M0 74 C0 47.599329995922744, 0 21.19865999184549, 0 0" stroke="#000000" stroke-width="1" fill="none"/></g><g transform="translate(733.7894736842102 12) rotate(0 120 35.5)"><path d="M120.00000000000001 0 C135.45035619205635 -0.5405534593127322, 153.93204819036927 1.1105760332535386, 168.79059850123056 3.0667924412360392 C183.64914881209185 5.02300884921854, 198.26495040288307 8.162854910432687, 209.1513018651678 11.737298447895004 C220.03765332745252 15.31174198535732, 229.07546623177578 19.938364769339046, 234.10870727493892 24.51345366600994 C239.14194831810207 29.088542562680836, 241.0402459838286 34.40256788450813, 239.35074812414672 39.187831827920384 C237.66125026446483 43.97309577133264, 232.09205044187829 49.05638207103272, 223.9717201168475 53.22503732648345 C215.85138979181673 57.39369258193418, 203.7769223355448 61.36796470454598, 190.628766173962 64.19976336062476 C177.48061001237917 67.03156201670353, 160.9870656563286 69.21015699292899, 145.08278314735057 70.2158292629561 C129.17850063837253 71.22150153298323, 111.11558513805477 71.22800817377424, 95.20307112009368 70.23379698078746 C79.2905571021326 69.23958578780068, 62.77912751236786 67.07287989502794, 49.60769903958405 64.25056210503537 C36.43627056680024 61.4282443150428, 24.329122800821892 57.46268291711966, 16.17450028339084 53.29989024083201 C8.019877765959789 49.13709756454437, 2.4088489648173974 44.05783861755015, 0.6799639349977298 39.27380604730951 C-1.0489210948219376 34.48977347706887, 0.8056260105562076 29.174396301889345, 5.801190104472838 24.595694819388157 C10.796754198389468 20.01699333688697, 19.796454052840843 15.383873062714203, 30.653348498497508 11.801597152302378 C41.51024294415417 8.219321241890553, 56.051448194829064 5.068972215634266, 70.94255677841281 3.102039356917203 C85.83366536199655 1.13510649820014, 111.82375946306877 0.398673226152867, 119.99999999999997 0 C128.17624053693118 -0.398673226152867, 120.00000000000001 0.11833333333333407, 120.00000000000001 0.7100000000000009 M120.00000000000001 0 C135.45035619205635 -0.5405534593127322, 153.93204819036927 1.1105760332535386, 168.79059850123056 3.0667924412360392 C183.64914881209185 5.02300884921854, 198.26495040288307 8.162854910432687, 209.1513018651678 11.737298447895004 C220.03765332745252 15.31174198535732, 229.07546623177578 19.938364769339046, 234.10870727493892 24.51345366600994 C239.14194831810207 29.088542562680836, 241.0402459838286 34.40256788450813, 239.35074812414672 39.187831827920384 C237.66125026446483 43.97309577133264, 232.09205044187829 49.05638207103272, 223.9717201168475 53.22503732648345 C215.85138979181673 57.39369258193418, 203.7769223355448 61.36796470454598, 190.628766173962 64.19976336062476 C177.48061001237917 67.03156201670353, 160.9870656563286 69.21015699292899, 145.08278314735057 70.2158292629561 C129.17850063837253 71.22150153298323, 111.11558513805477 71.22800817377424, 95.20307112009368 70.23379698078746 C79.2905571021326 69.23958578780068, 62.77912751236786 67.07287989502794, 49.60769903958405 64.25056210503537 C36.43627056680024 61.4282443150428, 24.329122800821892 57.46268291711966, 16.17450028339084 53.29989024083201 C8.019877765959789 49.13709756454437, 2.4088489648173974 44.05783861755015, 0.6799639349977298 39.27380604730951 C-1.0489210948219376 34.48977347706887, 0.8056260105562076 29.174396301889345, 5.801190104472838 24.595694819388157 C10.796754198389468 20.01699333688697, 19.796454052840843 15.383873062714203, 30.653348498497508 11.801597152302378 C41.51024294415417 8.219321241890553, 56.051448194829064 5.068972215634266, 70.94255677841281 3.102039356917203 C85.83366536199655 1.13510649820014, 111.82375946306877 0.398673226152867, 119.99999999999997 0 C128.17624053693118 -0.398673226152867, 120.00000000000001 0.11833333333333407, 120.00000000000001 0.7100000000000009" stroke="#000000" stroke-width="1" fill="none"/></g><g transform="translate(1009.7894736842102 10) rotate(0 134 37)"><path d="M135 0 C188.1622706814669 15.18922019470483, 241.32454136293381 30.37844038940966, 268 38 M135 0 C184.96790275881068 14.276543645374478, 234.93580551762136 28.553087290748955, 268 38 M268 38 C239.36190049508588 45.75166603140533, 210.72380099017172 53.50333206281066, 135 74 M268 38 C237.30777800669892 46.30766911096871, 206.61555601339788 54.61533822193742, 135 74 M135 74 C90.2589724729769 62.069059326127174, 45.51794494595377 50.13811865225434, 0 38 M135 74 C88.8072554175742 61.68193477801979, 42.614510835148394 49.363869556039575, 0 38 M0 38 C53.16453243093566 23.035168649069963, 106.32906486187132 8.070337298139926, 135 0 M0 38 C34.41760064614937 28.31208278108388, 68.83520129229873 18.624165562167764, 135 0" stroke="#000000" stroke-width="1" fill="none"/></g><g transform="translate(509.7894736842102 32.5) rotate(0 74 17)"><text x="74" y="27" font-family="Helvetica, Segoe UI Emoji" font-size="28px" fill="#000000" text-anchor="middle" style="white-space: pre;" direction="ltr">Must have</text></g><g transform="translate(757.2894736842102 29) rotate(0 87.5 17)"><text x="87.5" y="27" font-family="Helvetica, Segoe UI Emoji" font-size="28px" fill="#000000" text-anchor="middle" style="white-space: pre;" direction="ltr">Should have</text></g><g transform="translate(1062.2894736842102 29) rotate(0 79.5 17)"><text x="79.5" y="27" font-family="Helvetica, Segoe UI Emoji" font-size="28px" fill="#000000" text-anchor="middle" style="white-space: pre;" direction="ltr">Could have</text></g><g><g transform="translate(444.7894736842102 99) rotate(0 424.50000000000006 0.5)"><path d="M0 0 C141.5 0.16666666666666666, 707.5 0.8333333333333334, 849 1 M0 0 C141.5 0.16666666666666666, 707.5 0.8333333333333334, 849 1" stroke="#000000" stroke-width="1" fill="none"/></g></g><g transform="translate(736.7894736842102 151) rotate(0 114 25)"><path d="M0 0 C90.39394815377892 0, 180.78789630755784 0, 228 0 M0 0 C53.93400509543717 0, 107.86801019087434 0, 228 0 M228 0 C228 11.275408281944694, 228 22.550816563889388, 228 50 M228 0 C228 19.58775466773659, 228 39.17550933547318, 228 50 M228 50 C136.91840633936226 50, 45.83681267872453 50, 0 50 M228 50 C176.3317818146199 50, 124.66356362923979 50, 0 50 M0 50 C0 33.410876081325114, 0 16.821752162650228, 0 0 M0 50 C0 36.882438897155225, 0 23.764877794310447, 0 0" stroke="#000000" stroke-width="1" fill="none"/></g><g transform="translate(746.2894736842102 163.5) rotate(0 102.5 12)"><text x="102.5" y="19" font-family="Helvetica, Segoe UI Emoji" font-size="20px" fill="#000000" text-anchor="middle" style="white-space: pre;" direction="ltr">Initialized web page</text></g><g><g transform="translate(848.7894736842102 203) rotate(0 0 43)"><path d="M0 0 C0 14.333333333333334, 0 71.66666666666667, 0 86 M0 0 C0 14.333333333333334, 0 71.66666666666667, 0 86" stroke="#000000" stroke-width="1" fill="none"/></g><g transform="translate(848.7894736842102 203) rotate(0 0 43)"><path d="M-10.260604299770062 57.80922137642275 C-7.984797182928953 64.06195004097782, -5.7089900660878445 70.3146787055329, 0 86 M-10.260604299770062 57.80922137642275 C-6.535534544472769 68.04376641499542, -2.8104647891754775 78.27831145356808, 0 86" stroke="#000000" stroke-width="1" fill="none"/></g><g transform="translate(848.7894736842102 203) rotate(0 0 43)"><path d="M10.260604299770062 57.80922137642275 C7.984797182928953 64.06195004097782, 5.7089900660878445 70.3146787055329, 0 86 M10.260604299770062 57.80922137642275 C6.535534544472769 68.04376641499542, 2.8104647891754775 78.27831145356808, 0 86" stroke="#000000" stroke-width="1" fill="none"/></g></g><g transform="translate(737.7894736842102 295) rotate(0 114 25)"><path d="M0 0 C63.54059421010316 0, 127.08118842020632 0, 228 0 M0 0 C46.22505271844566 0, 92.45010543689132 0, 228 0 M228 0 C228 15.88743975851685, 228 31.7748795170337, 228 50 M228 0 C228 19.23691393341869, 228 38.47382786683738, 228 50 M228 50 C175.57773557715117 50, 123.15547115430235 50, 0 50 M228 50 C139.06684889383615 50, 50.133697787672276 50, 0 50 M0 50 C0 34.3749920418486, 0 18.749984083697196, 0 0 M0 50 C0 34.37156586442143, 0 18.743131728842854, 0 0" stroke="#000000" stroke-width="1" fill="none"/></g><g transform="translate(741.7894736842102 307.5) rotate(0 108 12)"><text x="108" y="19" font-family="Helvetica, Segoe UI Emoji" font-size="20px" fill="#000000" text-anchor="middle" style="white-space: pre;" direction="ltr">Drum page with keys</text></g><g><g transform="translate(825.0710778571963 349) rotate(0 -50.47673780964942 50.5)"><path d="M0 0 C-16.82557926988314 16.833333333333332, -84.1278963494157 84.16666666666667, -100.95347561929884 101 M0 0 C-16.82557926988314 16.833333333333332, -84.1278963494157 84.16666666666667, -100.95347561929884 101" stroke="#000000" stroke-width="1" fill="none"/></g><g transform="translate(825.0710778571963 349) rotate(0 -50.47673780964942 50.5)"><path d="M-88.28119173535956 73.80784633088338 C-93.01511340801964 83.9658830951702, -97.74903508067972 94.123919859457, -100.95347561929884 101 M-88.28119173535956 73.80784633088338 C-91.91878298643438 81.61338013919895, -95.5563742375092 89.41891394751453, -100.95347561929884 101" stroke="#000000" stroke-width="1" fill="none"/></g><g transform="translate(825.0710778571963 349) rotate(0 -50.47673780964942 50.5)"><path d="M-73.76716350918043 88.31518885236247 C-83.9230180715061 93.05379027223019, -94.07887263383176 97.79239169209791, -100.95347561929884 101 M-73.76716350918043 88.31518885236247 C-81.57102049237915 91.95637606650487, -89.37487747557788 95.59756328064728, -100.95347561929884 101" stroke="#000000" stroke-width="1" fill="none"/></g></g><g transform="translate(582.7894736842102 456) rotate(0 114 25)"><path d="M0 0 C81.14519905261696 0, 162.29039810523392 0, 228 0 M0 0 C54.00817514844239 0, 108.01635029688478 0, 228 0 M228 0 C228 11.816834970377386, 228 23.63366994075477, 228 50 M228 0 C228 18.252849490381777, 228 36.505698980763555, 228 50 M228 50 C159.8896949607879 50, 91.77938992157578 50, 0 50 M228 50 C148.22732077650727 50, 68.45464155301451 50, 0 50 M0 50 C0 31.819635168649256, 0 13.639270337298512, 0 0 M0 50 C0 33.86875131633133, 0 17.737502632662647, 0 0" stroke="#000000" stroke-width="1" fill="none"/></g><g transform="translate(586.7894736842102 468.5) rotate(0 108 12)"><text x="108" y="19" font-family="Helvetica, Segoe UI Emoji" font-size="20px" fill="#000000" text-anchor="middle" style="white-space: pre;" direction="ltr">Drum page with keys</text></g><g><g transform="translate(871.6442384966489 347.73529411764713) rotate(0 61.73244789498693 45.43549403222377)"><path d="M0 0 C20.57748263166231 15.145164677407925, 102.88741315831156 75.72582338703963, 123.46489578997387 90.87098806444754 M0 0 C20.57748263166231 15.145164677407925, 102.88741315831156 75.72582338703963, 123.46489578997387 90.87098806444754" stroke="#000000" stroke-width="1" fill="none"/></g><g transform="translate(871.6442384966489 347.73529411764713) rotate(0 61.73244789498693 45.43549403222377)"><path d="M94.67858472340885 82.42419605925663 C101.20958163472515 84.34059209794559, 107.74057854604146 86.25698813663453, 123.46489578997387 90.87098806444754 M94.67858472340885 82.42419605925663 C105.46534646713067 85.58936483159704, 116.25210821085248 88.75453360393745, 123.46489578997387 90.87098806444754" stroke="#000000" stroke-width="1" fill="none"/></g><g transform="translate(871.6442384966489 347.73529411764713) rotate(0 61.73244789498693 45.43549403222377)"><path d="M106.84279540207343 65.89688590451874 C110.61399366509288 71.56297433426681, 114.38519192811232 77.22906276401488, 123.46489578997387 90.87098806444754 M106.84279540207343 65.89688590451874 C113.07140302567274 75.25514265160898, 119.30001064927205 84.61339939869922, 123.46489578997387 90.87098806444754" stroke="#000000" stroke-width="1" fill="none"/></g></g><g transform="translate(941.7894736842102 420) rotate(0 122 49.5)"><path d="M123 0 C168.24014281379058 18.69427388999611, 213.48028562758117 37.38854777999222, 244 50 M123 0 C170.43127361042426 19.599699839018285, 217.8625472208485 39.19939967803657, 244 50 M244 50 C211.4845050628297 63.1674318340607, 178.9690101256594 76.3348636681214, 123 99 M244 50 C219.05713646011426 60.10082903681323, 194.11427292022853 70.20165807362646, 123 99 M123 99 C97.54313923129811 88.85864896206185, 72.08627846259623 78.7172979241237, 0 50 M123 99 C94.29527770718559 87.5647854280658, 65.59055541437118 76.12957085613161, 0 50 M0 50 C45.953246280457826 31.319818585179746, 91.90649256091565 12.639637170359492, 123 0 M0 50 C29.426492498908193 38.03801117930561, 58.852984997816385 26.076022358611226, 123 0" stroke="#000000" stroke-width="1" fill="none"/></g><g transform="translate(965.7894736842102 457.6842105263157) rotate(0 98 9.5)"><text x="98" y="15" font-family="Helvetica, Segoe UI Emoji" font-size="16px" fill="#000000" text-anchor="middle" style="white-space: pre;" direction="ltr">Change keyboard's type</text></g><g><g transform="translate(1029.9473684210523 516.4210526315788) rotate(0 -0.5 24.9736842105263)"><path d="M0 0 C-0.16666666666666666 8.324561403508767, -0.8333333333333334 41.622807017543835, -1 49.9473684210526 M0 0 C-0.16666666666666666 8.324561403508767, -0.8333333333333334 41.622807017543835, -1 49.9473684210526" stroke="#000000" stroke-width="1" fill="none"/></g><g transform="translate(1029.9473684210523 516.4210526315788) rotate(0 -0.5 24.9736842105263)"><path d="M-9.07165674266124 26.308771582920645 C-6.4326578540284185 34.03732506004757, -3.793658965395598 41.7658785371745, -1 49.9473684210526 M-9.07165674266124 26.308771582920645 C-6.052456869496748 35.15077897382759, -3.0332569963322555 43.99278636473454, -1 49.9473684210526" stroke="#000000" stroke-width="1" fill="none"/></g><g transform="translate(1029.9473684210523 516.4210526315788) rotate(0 -0.5 24.9736842105263)"><path d="M8.011349363447149 26.650791726246315 C5.06512138158447 34.26752295833698, 2.1188933997217925 41.88425419042764, -1 49.9473684210526 M8.011349363447149 26.650791726246315 C4.640657853318543 35.36486662370482, 1.269966343189937 44.07894152116333, -1 49.9473684210526" stroke="#000000" stroke-width="1" fill="none"/></g></g><g transform="translate(975.7894736842102 591.5) rotate(0 95 9.5)"><text x="95" y="15" font-family="Helvetica, Segoe UI Emoji" font-size="16px" fill="#000000" text-anchor="middle" style="white-space: pre;" direction="ltr">Change order of letters</text></g><g><g transform="translate(696.342429214581 509) rotate(0 -0.9246421131419993 27.5)"><path d="M0 0 C-0.30821403771399974 9.166666666666666, -1.5410701885699989 45.833333333333336, -1.8492842262839986 55 M0 0 C-0.30821403771399974 9.166666666666666, -1.5410701885699989 45.833333333333336, -1.8492842262839986 55" stroke="#000000" stroke-width="1" fill="none"/></g><g transform="translate(696.342429214581 509) rotate(0 -0.9246421131419993 27.5)"><path d="M-10.385958797152464 28.842206700325743 C-7.689168260419322 37.1056222547981, -4.99237772368618 45.36903780927046, -1.8492842262839986 55 M-10.385958797152464 28.842206700325743 C-8.665724791172066 34.11329032685411, -6.945490785191668 39.38437395338248, -1.8492842262839986 55" stroke="#000000" stroke-width="1" fill="none"/></g><g transform="translate(696.342429214581 509) rotate(0 -0.9246421131419993 27.5)"><path d="M8.425149085759317 29.474699156449294 C5.17938935857373 37.53830626606775, 1.9336296313881434 45.60191337568621, -1.8492842262839986 55 M8.425149085759317 29.474699156449294 C6.3547375421508745 34.618328582572424, 4.284325998542432 39.76195800869555, -1.8492842262839986 55" stroke="#000000" stroke-width="1" fill="none"/></g></g><g transform="translate(580.7894736842102 579) rotate(0 114 25)"><path d="M0 0 C67.93608100824059 0, 135.87216201648118 0, 228 0 M0 0 C79.83478148169816 0, 159.66956296339632 0, 228 0 M228 0 C228 18.439937843941152, 228 36.879875687882304, 228 50 M228 0 C228 13.210597694851458, 228 26.421195389702916, 228 50 M228 50 C157.04708036966622 50, 86.09416073933244 50, 0 50 M228 50 C167.3386165123433 50, 106.67723302468657 50, 0 50 M0 50 C0 38.111046836711466, 0 26.22209367342293, 0 0 M0 50 C0 32.990354537032545, 0 15.98070907406509, 0 0" stroke="#000000" stroke-width="1" fill="none"/></g><g transform="translate(629.2894736842102 594.5) rotate(0 65.5 9.5)"><text x="65.5" y="15" font-family="Helvetica, Segoe UI Emoji" font-size="16px" fill="#000000" text-anchor="middle" style="white-space: pre;" direction="ltr">Users press Key</text></g><g><g transform="translate(953.7894736842102 604) rotate(0 -73 1.5)"><path d="M0 0 C-24.333333333333332 0.5, -121.66666666666667 2.5, -146 3 M0 0 C-24.333333333333332 0.5, -121.66666666666667 2.5, -146 3" stroke="#000000" stroke-width="1" fill="none"/></g><g transform="translate(953.7894736842102 604) rotate(0 -73 1.5)"><path d="M-118.02596066032191 -7.837579204884424 C-123.82803098187344 -5.58976665630711, -129.63010130342496 -3.341954107729796, -146 3 M-118.02596066032191 -7.837579204884424 C-126.31097393661307 -4.6278358244221, -134.59598721290422 -1.4180924439597753, -146 3" stroke="#000000" stroke-width="1" fill="none"/></g><g transform="translate(953.7894736842102 604) rotate(0 -73 1.5)"><path d="M-117.6043809803517 12.67929855366539 C-123.49389076388522 10.671723952452837, -129.38340054741872 8.664149351240283, -146 3 M-117.6043809803517 12.67929855366539 C-126.01425263705607 9.812600754018042, -134.42412429376043 6.945902954370694, -146 3" stroke="#000000" stroke-width="1" fill="none"/></g></g><g><g transform="translate(695.3791448035565 632.2121608368748) rotate(0 1.0432552649554054 24.556479813334136)"><path d="M0 0 C0.34775175498513516 8.185493271111378, 1.7387587749256757 40.927466355556895, 2.086510529910811 49.11295962666827 M0 0 C0.34775175498513516 8.185493271111378, 1.7387587749256757 40.927466355556895, 2.086510529910811 49.11295962666827" stroke="#000000" stroke-width="1" fill="none"/></g><g transform="translate(695.3791448035565 632.2121608368748) rotate(0 1.0432552649554054 24.556479813334136)"><path d="M-7.292639489494265 26.394231068845365 C-4.7277956116431525 32.60694669164008, -2.162951733792039 38.81966231443481, 2.086510529910811 49.11295962666827 M-7.292639489494265 26.394231068845365 C-4.018827183981045 34.32425169590993, -0.7450148784678259 42.25427232297449, 2.086510529910811 49.11295962666827" stroke="#000000" stroke-width="1" fill="none"/></g><g transform="translate(695.3791448035565 632.2121608368748) rotate(0 1.0432552649554054 24.556479813334136)"><path d="M9.504982001166603 25.680602438354754 C7.47630977642374 32.088468583338184, 5.447637551680878 38.49633472832161, 2.086510529910811 49.11295962666827 M9.504982001166603 25.680602438354754 C6.915548721983754 33.85971665995966, 4.326115442800904 42.03883088156456, 2.086510529910811 49.11295962666827" stroke="#000000" stroke-width="1" fill="none"/></g></g><g transform="translate(567.9999999999998 689.0676691729324) rotate(0 136.84210526315792 44.73684210526312)"><path d="M136.84210526315792 0 C153.33207482240806 -0.6895180488630169, 172.86374279962905 1.2063269250680002, 188.91569334500042 3.3657591734820116 C204.9676438903718 5.525191421896023, 220.82309483554837 8.962657109168127, 233.15380853538622 12.956593490484067 C245.48452223522406 16.950529871800008, 256.1458917303476 22.1019014936554, 262.8999755440275 27.329377461377657 C269.65405935770735 32.55685342909992, 273.5171393053149 38.64700804541337, 273.67831141746547 44.32144929681761 C273.839483529616 49.99589054822185, 270.3229992505086 56.108447261139645, 263.8670082169307 61.37602496980311 C257.4110171833528 66.64360267846658, 247.04409137210794 71.85880976382703, 234.942365215998 75.9269155487984 C222.84063905988805 79.99502133376978, 207.18317509850596 83.52815057817514, 191.25665128027097 85.7846596796314 C175.330127462036 88.04116878108766, 156.73809195350069 89.36059293478819, 139.38322230658818 89.46597015753599 C122.02835265967568 89.5713473802838, 103.29927493872734 88.47853370202866, 87.12743339879594 86.41692301611823 C70.95559185886455 84.35531233020781, 54.907621896921164 81.01469565667323, 42.35217306699985 77.09630604207348 C29.796724237078543 73.17791642747373, 18.844587775759702 68.09215678940483, 11.794740419268095 62.906585328519746 C4.744893062776488 57.72101386763467, 0.5365496821158118 51.65536162023884, 0.053088928050215145 45.98287727676299 C-0.4303718260153815 40.31039293328714, 2.7383040773557923 34.17754212174478, 8.893975894874515 28.871679267664632 C15.049647712393238 23.565816413584486, 25.1185546649687 18.288572399524675, 36.98711983316255 14.147700152282102 C48.855685001356406 10.006827905039529, 64.30976229040968 6.379253550978662, 80.10536690403765 4.026445784209201 C95.90097151766562 1.6736380174397407, 122.30462445507702 0.7019278490335381, 131.7607475149304 0.030853551665337875 C141.21687057478377 -0.6402207457028624, 135.99521230511996 -0.14398054840665372, 136.8421052631579 0 C137.68899822119582 0.14398054840665372, 136.84210526315792 0.1491228070175422, 136.84210526315792 0.8947368421052602 M136.84210526315792 0 C153.33207482240806 -0.6895180488630169, 172.86374279962905 1.2063269250680002, 188.91569334500042 3.3657591734820116 C204.9676438903718 5.525191421896023, 220.82309483554837 8.962657109168127, 233.15380853538622 12.956593490484067 C245.48452223522406 16.950529871800008, 256.1458917303476 22.1019014936554, 262.8999755440275 27.329377461377657 C269.65405935770735 32.55685342909992, 273.5171393053149 38.64700804541337, 273.67831141746547 44.32144929681761 C273.839483529616 49.99589054822185, 270.3229992505086 56.108447261139645, 263.8670082169307 61.37602496980311 C257.4110171833528 66.64360267846658, 247.04409137210794 71.85880976382703, 234.942365215998 75.9269155487984 C222.84063905988805 79.99502133376978, 207.18317509850596 83.52815057817514, 191.25665128027097 85.7846596796314 C175.330127462036 88.04116878108766, 156.73809195350069 89.36059293478819, 139.38322230658818 89.46597015753599 C122.02835265967568 89.5713473802838, 103.29927493872734 88.47853370202866, 87.12743339879594 86.41692301611823 C70.95559185886455 84.35531233020781, 54.907621896921164 81.01469565667323, 42.35217306699985 77.09630604207348 C29.796724237078543 73.17791642747373, 18.844587775759702 68.09215678940483, 11.794740419268095 62.906585328519746 C4.744893062776488 57.72101386763467, 0.5365496821158118 51.65536162023884, 0.053088928050215145 45.98287727676299 C-0.4303718260153815 40.31039293328714, 2.7383040773557923 34.17754212174478, 8.893975894874515 28.871679267664632 C15.049647712393238 23.565816413584486, 25.1185546649687 18.288572399524675, 36.98711983316255 14.147700152282102 C48.855685001356406 10.006827905039529, 64.30976229040968 6.379253550978662, 80.10536690403765 4.026445784209201 C95.90097151766562 1.6736380174397407, 122.30462445507702 0.7019278490335381, 131.7607475149304 0.030853551665337875 C141.21687057478377 -0.6402207457028624, 135.99521230511996 -0.14398054840665372, 136.8421052631579 0 C137.68899822119582 0.14398054840665372, 136.84210526315792 0.1491228070175422, 136.84210526315792 0.8947368421052602" stroke="#000000" stroke-width="1" fill="none"/></g><g transform="translate(586.0263157894736 724.3045112781954) rotate(0 117.5 9.5)"><text x="117.5" y="15" font-family="Helvetica, Segoe UI Emoji" font-size="16px" fill="#000000" text-anchor="middle" style="white-space: pre;" direction="ltr">Play sound and highlight key</text></g><g><g transform="translate(578.5263157894736 606.2781954887217) rotate(0 -61.84210526315792 1.3157894736842195)"><path d="M0 0 C-20.614035087719305 0.43859649122807315, -103.07017543859654 2.1929824561403657, -123.68421052631584 2.631578947368439 M0 0 C-20.614035087719305 0.43859649122807315, -103.07017543859654 2.1929824561403657, -123.68421052631584 2.631578947368439" stroke="#000000" stroke-width="1" fill="none"/></g><g transform="translate(578.5263157894736 606.2781954887217) rotate(0 -61.84210526315792 1.3157894736842195)"><path d="M-95.718071961235 -8.226371768982174 C-106.02676433641525 -4.223986044573069, -116.3354567115955 -0.22160032016396336, -123.68421052631584 2.631578947368439 M-95.718071961235 -8.226371768982174 C-101.67809263816089 -5.912372979771607, -107.63811331508678 -3.5983741905610414, -123.68421052631584 2.631578947368439" stroke="#000000" stroke-width="1" fill="none"/></g><g transform="translate(578.5263157894736 606.2781954887217) rotate(0 -61.84210526315792 1.3157894736842195)"><path d="M-95.28154929598306 12.29019349785918 C-105.75114975864932 8.729899110425535, -116.22075022131558 5.16960472299189, -123.68421052631584 2.631578947368439 M-95.28154929598306 12.29019349785918 C-101.33459976695055 10.231791967114432, -107.38765023791805 8.173390436369683, -123.68421052631584 2.631578947368439" stroke="#000000" stroke-width="1" fill="none"/></g></g><g transform="translate(200.31578947368422 558.3571428571428) rotate(0 122 49.5)"><path d="M123 0 C164.88654469950126 17.308489545248452, 206.77308939900252 34.616979090496905, 244 50 M123 0 C162.90674503492193 16.490390510298315, 202.81349006984385 32.98078102059663, 244 50 M244 50 C200.75861929254606 67.51097235260531, 157.51723858509212 85.02194470521063, 123 99 M244 50 C205.87026785863563 65.44096590848639, 167.74053571727126 80.8819318169728, 123 99 M123 99 C86.44258871516212 84.43647843124344, 49.88517743032425 69.87295686248689, 0 50 M123 99 C84.44428772041573 83.64040730325505, 45.888575440831474 68.28081460651009, 0 50 M0 50 C35.70034428695217 35.487664924003184, 71.40068857390435 20.975329848006364, 123 0 M0 50 C26.972280877735468 39.03565817978233, 53.944561755470936 28.071316359564662, 123 0" stroke="#000000" stroke-width="1" fill="none"/></g><g transform="translate(275.3157894736842 596.0413533834585) rotate(0 47 9.5)"><text x="47" y="15" font-family="Helvetica, Segoe UI Emoji" font-size="16px" fill="#000000" text-anchor="middle" style="white-space: pre;" direction="ltr">Finish play </text></g><g><g transform="translate(322.31578947368416 657.8571428571428) rotate(0 -0.5804395186779345 43.4337962354187)"><path d="M0 0 C0 11.403508771929827, 0.20882875289726144 53.94312055310606, 0 68.42105263157896 C-0.20882875289726144 82.89898471005186, -1.0441437644863072 83.79316916429433, -1.2529725173835686 86.8675924708374 M0 0 C0 11.403508771929827, 0.20882875289726144 53.94312055310606, 0 68.42105263157896 C-0.20882875289726144 82.89898471005186, -1.0441437644863072 83.79316916429433, -1.2529725173835686 86.8675924708374" stroke="#000000" stroke-width="1" fill="none"/></g><g transform="translate(322.31578947368416 657.8571428571428) rotate(0 -0.5804395186779345 43.4337962354187)"><path d="M-7.962325114154388 57.62747298181675 C-5.600662644239208 67.91986584939261, -3.239000174324026 78.21225871696845, -1.2529725173835686 86.8675924708374 M-7.962325114154388 57.62747298181675 C-5.6868119036877935 67.54441760698249, -3.411298693221199 77.46136223214825, -1.2529725173835686 86.8675924708374" stroke="#000000" stroke-width="1" fill="none"/></g><g transform="translate(322.31578947368416 657.8571428571428) rotate(0 -0.5804395186779345 43.4337962354187)"><path d="M12.40255172223063 60.155672701915705 C7.595867524527928 69.55815043844278, 2.789183326825226 78.96062817496986, -1.2529725173835686 86.8675924708374 M12.40255172223063 60.155672701915705 C7.771206841348329 69.21516472210851, 3.1398619604660283 78.2746567423013, -1.2529725173835686 86.8675924708374" stroke="#000000" stroke-width="1" fill="none"/></g></g><g transform="translate(197.68421052631572 746.515037593985) rotate(0 122 49.5)"><path d="M123 0 C152.3162076328881 12.114135385490954, 181.63241526577622 24.228270770981908, 244 50 M123 0 C149.34988242490218 10.888381167314948, 175.69976484980435 21.776762334629897, 244 50 M244 50 C204.10660251332448 66.15517749460415, 164.21320502664895 82.31035498920828, 123 99 M244 50 C206.81577736334876 65.05807362971828, 169.63155472669752 80.11614725943656, 123 99 M123 99 C75.08356021055951 79.91133699445054, 27.167120421119023 60.82267398890107, 0 50 M123 99 C75.89853205522522 80.23600057484582, 28.797064110450435 61.472001149691636, 0 50 M0 50 C33.97360887816176 36.189589886926115, 67.94721775632352 22.379179773852226, 123 0 M0 50 C39.236853377614175 34.050059602595866, 78.47370675522835 18.100119205191728, 123 0" stroke="#000000" stroke-width="1" fill="none"/></g><g transform="translate(237.68421052631572 785.5150375939847) rotate(0 82 19)"><text x="82" y="15" font-family="Helvetica, Segoe UI Emoji" font-size="16px" fill="#000000" text-anchor="middle" style="white-space: pre;" direction="ltr">Button to save Song</text><text x="82" y="34" font-family="Helvetica, Segoe UI Emoji" font-size="16px" fill="#000000" text-anchor="middle" style="white-space: pre;" direction="ltr"/></g><g transform="translate(387.15789473684197 843.8834586466168) rotate(0 122 49.5)"><path d="M123 0 C166.2977423111908 17.89162905421108, 209.59548462238163 35.78325810842216, 244 50 M123 0 C155.2613141869195 13.331121564842762, 187.52262837383898 26.662243129685525, 244 50 M244 50 C213.9445260395296 62.17122499225661, 183.88905207905918 74.34244998451322, 123 99 M244 50 C196.19325102521105 69.3597578492947, 148.3865020504221 88.71951569858939, 123 99 M123 99 C98.18710280796513 89.11518729748204, 73.37420561593026 79.23037459496409, 0 50 M123 99 C92.15647647986188 86.7127426627092, 61.31295295972376 74.4254853254184, 0 50 M0 50 C30.905958463344724 37.43660225067288, 61.81191692668945 24.873204501345754, 123 0 M0 50 C33.302131512667984 36.46254816558212, 66.60426302533597 22.92509633116424, 123 0" stroke="#000000" stroke-width="1" fill="none"/></g><g transform="translate(458.2894736842104 885.5150375939849) rotate(0 53.5 9.5)"><text x="53.5" y="15" font-family="Helvetica, Segoe UI Emoji" font-size="16px" fill="#000000" text-anchor="middle" style="white-space: pre;" direction="ltr">If song saved</text></g><g><g transform="translate(245.99999999999994 820.5413533834586) rotate(0 -39.473684210526315 22.36842105263156)"><path d="M0 0 C-13.157894736842104 7.456140350877187, -65.78947368421052 37.28070175438594, -78.94736842105263 44.73684210526312 M0 0 C-13.157894736842104 7.456140350877187, -65.78947368421052 37.28070175438594, -78.94736842105263 44.73684210526312" stroke="#000000" stroke-width="1" fill="none"/></g><g transform="translate(245.99999999999994 820.5413533834586) rotate(0 -39.473684210526315 22.36842105263156)"><path d="M-59.47937249810132 21.911480448896068 C-66.3489778394549 29.965787988998308, -73.2185831808085 38.020095529100544, -78.94736842105263 44.73684210526312 M-59.47937249810132 21.911480448896068 C-66.35028421674643 29.967319658424216, -73.22119593539155 38.02315886795236, -78.94736842105263 44.73684210526312" stroke="#000000" stroke-width="1" fill="none"/></g><g transform="translate(245.99999999999994 820.5413533834586) rotate(0 -39.473684210526315 22.36842105263156)"><path d="M-49.36215866628589 39.76538721092331 C-59.80179075583285 41.51964754833136, -70.2414228453798 43.27390788573942, -78.94736842105263 44.73684210526312 M-49.36215866628589 39.76538721092331 C-59.80377603702675 41.5199811520472, -70.24539340776761 43.274575093171094, -78.94736842105263 44.73684210526312" stroke="#000000" stroke-width="1" fill="none"/></g></g><g transform="translate(394.21052631578937 1024.988721804512) rotate(0 122 49.5)"><path d="M123 0 C151.639008585643 11.83430106844753, 180.27801717128605 23.66860213689506, 244 50 M123 0 C156.7652028654702 13.95256316754967, 190.5304057309404 27.90512633509934, 244 50 M244 50 C209.99712802069263 63.76975807426497, 175.99425604138523 77.53951614852994, 123 99 M244 50 C216.19199067307636 61.26109468610957, 188.38398134615272 72.52218937221915, 123 99 M123 99 C85.78005012413487 84.17254029335454, 48.560100248269734 69.34508058670909, 0 50 M123 99 C97.54291415819898 88.85855929879472, 72.08582831639796 78.71711859758943, 0 50 M0 50 C32.44362561861053 36.81153430137783, 64.88725123722107 23.623068602755666, 123 0 M0 50 C37.666488054301595 34.688419490121305, 75.33297610860319 19.376838980242606, 123 0" stroke="#000000" stroke-width="1" fill="none"/></g><g transform="translate(435.71052631578937 1063.988721804512) rotate(0 80.5 9.5)"><text x="80.5" y="15" font-family="Helvetica, Segoe UI Emoji" font-size="16px" fill="#000000" text-anchor="middle" style="white-space: pre;" direction="ltr">Button to play Song</text></g><g><g transform="translate(509.9041131560971 947.300663043809) rotate(0 2.359044738639625 34.4249008659657)"><path d="M0 0 C0.7863482462132083 11.474966955321898, 3.9317412310660416 57.3748347766095, 4.71808947727925 68.8498017319314 M0 0 C0.7863482462132083 11.474966955321898, 3.9317412310660416 57.3748347766095, 4.71808947727925 68.8498017319314" stroke="#000000" stroke-width="1" fill="none"/></g><g transform="translate(509.9041131560971 947.300663043809) rotate(0 2.359044738639625 34.4249008659657)"><path d="M-7.445824790939094 41.426468789427226 C-3.9138734016720744 49.38919170483597, -0.3819220124050551 57.35191462024471, 4.71808947727925 68.8498017319314 M-7.445824790939094 41.426468789427226 C-2.883652780583817 51.71180615881591, 1.6785192297714602 61.99714352820459, 4.71808947727925 68.8498017319314" stroke="#000000" stroke-width="1" fill="none"/></g><g transform="translate(509.9041131560971 947.300663043809) rotate(0 2.359044738639625 34.4249008659657)"><path d="M13.02736917728532 40.0234965426244 C10.614661283007857 48.393590775105416, 8.201953388730391 56.76368500758643, 4.71808947727925 68.8498017319314 M13.02736917728532 40.0234965426244 C9.910908271881928 50.83502972156367, 6.794447366478535 61.64656290050294, 4.71808947727925 68.8498017319314" stroke="#000000" stroke-width="1" fill="none"/></g></g><g transform="translate(10 848.6729323308272) rotate(0 122 49.50000000000006)"><path d="M123 0 C161.8885174642317 16.069635315798227, 200.77703492846342 32.13927063159645, 244 50 M123 0 C148.6840795402415 10.61325600836426, 174.36815908048303 21.22651201672852, 244 50 M244 50 C205.06302870707586 65.76786440787836, 166.12605741415172 81.53572881575674, 123 99 M244 50 C204.86940945042298 65.84627220602707, 165.73881890084596 81.69254441205413, 123 99 M123 99 C89.14394171079621 85.51262718560174, 55.28788342159241 72.02525437120349, 0 50 M123 99 C81.17588541219011 82.33836085526272, 39.351770824380225 65.67672171052546, 0 50 M0 50 C31.78963174084202 37.07738547120243, 63.57926348168404 24.154770942404863, 123 0 M0 50 C43.987649547960615 32.118841647170484, 87.97529909592123 14.237683294340961, 123 0" stroke="#000000" stroke-width="1" fill="none"/></g><g transform="translate(65.13157894736844 890.3045112781949) rotate(0 69.5 9.5)"><text x="69.5" y="15" font-family="Helvetica, Segoe UI Emoji" font-size="16px" fill="#000000" text-anchor="middle" style="white-space: pre;" direction="ltr">If song not saved</text></g><g transform="translate(15.263157894736821 1026.9906459217043) rotate(0 122 49.5)"><path d="M123 0 C164.81432763086633 17.278647781349722, 206.62865526173266 34.557295562699444, 244 50 M123 0 C149.00830577714368 10.747233792208135, 175.01661155428738 21.49446758441627, 244 50 M244 50 C200.03219543648885 67.80514399679377, 156.06439087297767 85.61028799358755, 123 99 M244 50 C211.7833847423084 63.04639791427181, 179.56676948461683 76.09279582854361, 123 99 M123 99 C78.17445755610242 81.14267008332536, 33.34891511220485 63.28534016665071, 0 50 M123 99 C83.85799367269502 83.40684300782159, 44.71598734539002 67.81368601564319, 0 50 M0 50 C33.34051564028487 36.44694486167282, 66.68103128056974 22.893889723345634, 123 0 M0 50 C29.48773950794712 38.01311402115971, 58.97547901589424 26.026228042319417, 123 0" stroke="#000000" stroke-width="1" fill="none"/></g><g transform="translate(49.76315789473682 1064.6748564480201) rotate(0 87.5 19)"><text x="87.5" y="15" font-family="Helvetica, Segoe UI Emoji" font-size="16px" fill="#000000" text-anchor="middle" style="white-space: pre;" direction="ltr">Message there is not </text><text x="87.5" y="34" font-family="Helvetica, Segoe UI Emoji" font-size="16px" fill="#000000" text-anchor="middle" style="white-space: pre;" direction="ltr">saved song</text></g><g><g transform="translate(130.95674473504454 949.3025871610018) rotate(0 2.359044738639625 34.4249008659657)"><path d="M0 0 C0.7863482462132083 11.474966955321898, 3.9317412310660416 57.3748347766095, 4.71808947727925 68.8498017319314 M0 0 C0.7863482462132083 11.474966955321898, 3.9317412310660416 57.3748347766095, 4.71808947727925 68.8498017319314" stroke="#000000" stroke-width="1" fill="none"/></g><g transform="translate(130.95674473504454 949.3025871610018) rotate(0 2.359044738639625 34.4249008659657)"><path d="M-7.445824790939094 41.426468789427226 C-4.99332277991202 46.95559187493607, -2.540820768884948 52.48471496044491, 4.71808947727925 68.8498017319314 M-7.445824790939094 41.426468789427226 C-2.779123576327157 51.947465429946675, 1.88757763828478 62.46846207046612, 4.71808947727925 68.8498017319314" stroke="#000000" stroke-width="1" fill="none"/></g><g transform="translate(130.95674473504454 949.3025871610018) rotate(0 2.359044738639625 34.4249008659657)"><path d="M13.02736917728532 40.0234965426244 C11.352042902773837 45.835488463018834, 9.676716628262351 51.64748038341327, 4.71808947727925 68.8498017319314 M13.02736917728532 40.0234965426244 C9.839503428355776 51.082745274029435, 6.651637679426232 62.14199400543447, 4.71808947727925 68.8498017319314" stroke="#000000" stroke-width="1" fill="none"/></g></g><g transform="translate(953.5789473684213 551.4624060150373) rotate(0 122 49.5)"><path d="M123 0 C159.52221767650917 15.091825486160815, 196.04443535301834 30.18365097232163, 244 50 M123 0 C159.9871304760687 15.283938213251533, 196.9742609521374 30.567876426503066, 244 50 M244 50 C207.6135033125989 64.73502758415415, 171.22700662519782 79.47005516830832, 123 99 M244 50 C209.1508662720211 64.1124591129832, 174.30173254404218 78.2249182259664, 123 99 M123 99 C81.80436465153471 82.58873063353822, 40.60872930306941 66.17746126707644, 0 50 M123 99 C85.81196395000443 84.18525393130258, 48.62392790000885 69.37050786260515, 0 50 M0 50 C26.209427133109422 39.3457613280043, 52.418854266218844 28.6915226560086, 123 0 M0 50 C46.12091865995899 31.251659081317484, 92.24183731991798 12.503318162634969, 123 0" stroke="#000000" stroke-width="1" fill="none"/></g><g><g transform="translate(385.3370099901803 821.1606554128958) rotate(0 30.72633235589251 26.63387956615844)"><path d="M0 0 C10.242110785297504 8.877959855386147, 51.21055392648751 44.38979927693074, 61.45266471178502 53.26775913231688 M0 0 C10.242110785297504 8.877959855386147, 51.21055392648751 44.38979927693074, 61.45266471178502 53.26775913231688" stroke="#000000" stroke-width="1" fill="none"/></g><g transform="translate(385.3370099901803 821.1606554128958) rotate(0 30.72633235589251 26.63387956615844)"><path d="M33.430092074929405 42.55629691597354 C44.49541341659091 46.78595038137372, 55.56073475825241 51.015603846773914, 61.45266471178502 53.26775913231688 M33.430092074929405 42.55629691597354 C44.02822739844055 46.607371296352824, 54.6263627219517 50.658445676732114, 61.45266471178502 53.26775913231688" stroke="#000000" stroke-width="1" fill="none"/></g><g transform="translate(385.3370099901803 821.1606554128958) rotate(0 30.72633235589251 26.63387956615844)"><path d="M46.87132385571486 27.04974054129633 C52.629082939993516 37.402494530405114, 58.38684202427217 47.7552485195139, 61.45266471178502 53.26775913231688 M46.87132385571486 27.04974054129633 C52.38598611008715 36.96539363078175, 57.90064836445944 46.881046720267165, 61.45266471178502 53.26775913231688" stroke="#000000" stroke-width="1" fill="none"/></g></g></svg>